<?xml version="1.0" standalone="no"?><!DOCTYPE svg PUBLIC "-//W3C//DTD SVG 1.1//EN" "http://www.w3.org/Graphics/SVG/1.1/DTD/svg11.dtd"><svg t="1766997115252" class="icon" viewBox="0 0 1024 1024" version="1.1" xmlns="http://www.w3.org/2000/svg" p-id="1646" width="200" height="200"><path d="M556.8 368.96q-10.624 11.072-19.008 23.936-8.384 12.928-14.144 27.2-5.76 14.272-8.704 29.44Q512 464.512 512 480V512q-9.408 0-18.816 0.896-9.408 0.96-18.624 2.816-9.28 1.792-18.304 4.544-8.96 2.752-17.728 6.4-8.704 3.584-17.024 8-8.32 4.48-16.192 9.728-7.808 5.184-15.104 11.2-7.296 5.952-13.952 12.672-6.72 6.656-12.672 13.952-6.016 7.296-11.2 15.104-5.248 7.872-9.728 16.192-4.48 8.32-8.064 17.024-3.584 8.704-6.336 17.728-2.752 9.024-4.544 18.304-1.92 9.216-2.816 18.56Q320 694.656 320 704q0 21.952 4.928 43.264 4.928 21.376 14.592 41.088L170.88 891.776a29.632 29.632 0 0 1-28.288 1.216 25.152 25.152 0 0 1-14.592-22.4V153.408c0-9.344 5.632-17.92 14.592-22.4a29.632 29.632 0 0 1 28.288 1.28L556.8 368.96zM768 512q0-6.272-1.28-12.48-1.152-6.208-3.584-12.032-2.432-5.76-5.952-11.072-3.456-5.184-7.936-9.664-4.48-4.48-9.664-7.936-5.248-3.52-11.072-5.952-5.824-2.432-12.032-3.648Q710.272 448 704 448t-12.48 1.28q-6.208 1.152-12.032 3.584-5.76 2.432-11.072 5.952-5.184 3.456-9.664 7.936-4.48 4.48-7.936 9.664-3.52 5.248-5.952 11.072-2.432 5.824-3.648 12.032Q640 505.728 640 512v128H512q-6.272 0-12.48 1.28-6.208 1.152-12.032 3.584-5.76 2.432-11.072 5.952-5.184 3.456-9.664 7.936-4.48 4.48-7.936 9.664-3.52 5.248-5.952 11.072-2.432 5.824-3.648 12.032Q448 697.728 448 704t1.28 12.48q1.152 6.208 3.584 12.032 2.432 5.76 5.952 11.072 3.456 5.184 7.936 9.664 4.48 4.48 9.664 7.936 5.248 3.52 11.072 5.952 5.824 2.432 12.032 3.648Q505.728 768 512 768h128v128q0 6.272 1.28 12.48 1.152 6.208 3.584 12.032 2.432 5.76 5.952 11.072 3.456 5.184 7.936 9.664 4.48 4.48 9.664 7.936 5.248 3.52 11.072 5.952 5.824 2.432 12.032 3.648 6.208 1.216 12.48 1.216t12.48-1.28q6.208-1.152 12.032-3.584 5.76-2.432 11.072-5.952 5.184-3.456 9.664-7.936 4.48-4.48 7.936-9.664 3.52-5.248 5.952-11.072 2.432-5.824 3.648-12.032Q768 902.272 768 896v-128h128q6.272 0 12.48-1.28 6.208-1.152 12.032-3.584 5.76-2.432 11.072-5.952 5.184-3.456 9.664-7.936 4.48-4.48 7.936-9.664 3.52-5.248 5.952-11.072 2.432-5.824 3.648-12.032Q960 710.272 960 704t-1.28-12.48q-1.152-6.208-3.584-12.032-2.432-5.76-5.952-11.072-3.456-5.184-7.936-9.664-4.48-4.48-9.664-7.936-5.248-3.52-11.072-5.952-5.824-2.432-12.032-3.648Q902.272 640 896 640h-128V512z" p-id="1647"></path></svg>