<?xml version="1.0" standalone="no"?><!DOCTYPE svg PUBLIC "-//W3C//DTD SVG 1.1//EN" "http://www.w3.org/Graphics/SVG/1.1/DTD/svg11.dtd"><svg t="1766943013186" class="icon" viewBox="0 0 1024 1024" version="1.1" xmlns="http://www.w3.org/2000/svg" p-id="3750" width="200" height="200"><path d="M531.788405 124.527035c10.993558 0 19.988288 8.99473 19.988288 19.988288V191.687683l44.174117 11.992973c25.984775 7.095842 51.070076 17.489752 74.456373 30.881905l39.776694 22.786648 32.381026-32.381026 0.899473-0.899473c5.097013-5.097013 10.993558-5.896545 14.091743-5.896545 3.098185 0 8.99473 0.799532 14.091744 5.896545l28.283427 28.283427c7.795432 7.795432 7.795432 20.487995 0 28.283428l-0.899473 0.899473-32.381026 32.381027 22.786648 39.776693c13.392153 23.386297 23.786063 48.471599 30.881905 74.456373l11.992973 44.174117H879.484677c10.993558 0 19.988288 8.99473 19.988288 19.988288v39.976576c0 10.993558-8.99473 19.988288-19.988288 19.988289H832.312317l-11.992973 44.174116c-7.095842 26.184657-17.589694 51.3699-31.181729 74.956081l-22.88659 39.776693 32.480968 32.480968 0.899473 0.899473c7.795432 7.795432 7.795432 20.487995 0 28.283428l-28.283428 28.283428c-5.097013 5.097013-11.0935 5.896545-14.191684 5.896545s-9.094671-0.799532-14.191685-5.896545l-1.199297-1.199298-32.181144-32.181144-39.776693 22.686707c-23.286356 13.292212-48.171774 23.58618-73.856725 30.582081l-44.274058 11.992973V880.184267c0 10.993558-8.99473 19.988288-19.988288 19.988288h-39.976576c-10.993558 0-19.988288-8.99473-19.988289-19.988288V833.011907l-44.174116-11.992973c-25.984775-7.095842-51.070076-17.489752-74.456373-30.881905l-39.776694-22.786648-32.381027 32.381026-0.899473 0.899473c-5.097013 5.097013-10.993558 5.896545-14.091743 5.896545s-8.99473-0.799532-14.091743-5.896545l-28.283427-28.283427c-7.795432-7.795432-7.795432-20.487995 0-28.283428l0.899473-0.899473 32.381026-32.381027-22.786648-39.776693c-13.392153-23.386297-23.786063-48.471599-30.881905-74.456373l-11.992973-44.174117H144.015616c-10.993558 0-19.988288-8.99473-19.988288-19.988288v-39.976576c0-10.993558 8.99473-19.988288 19.988288-19.988288H191.187976l11.992973-44.274059c6.995901-25.784892 17.289869-50.67031 30.58208-73.856724l22.686707-39.776694-32.381026-32.381026-1.199298-1.199298c-5.097013-5.097013-5.896545-11.0935-5.896545-14.191684s0.799532-9.094671 5.896545-14.191685l28.283428-28.283427c5.097013-5.097013 11.0935-5.896545 14.191685-5.896545s9.094671 0.799532 14.191684 5.896545l0.899473 0.899473 32.480968 32.381026 39.776694-22.88659c23.58618-13.592036 48.771423-23.985946 74.95608-31.181729l44.174117-11.992973V144.31544c0-10.993558 8.99473-19.988288 19.988288-19.988288h39.976576m0-59.764981h-39.976576c-44.174117 0-79.953152 35.779036-79.953152 79.953152v1.299239c-31.481554 8.594964-61.364045 21.087644-89.047824 36.978333l-0.899473-0.899473c-15.590865-15.590865-36.07886-23.386297-56.566855-23.386297s-40.975991 7.795432-56.566856 23.386297l-28.283427 28.283428c-31.281671 31.281671-31.281671 81.85204 0 113.13371l1.199297 1.199298c-15.590865 27.383955-27.883662 56.766738-36.278743 87.848526h-1.299239c-44.174117 0-79.953152 35.779036-79.953152 79.953152v39.976576c0 44.174117 35.779036 79.953152 79.953152 79.953153h1.299239c8.495022 31.281671 20.887761 60.964279 36.678509 88.548116l-0.899473 0.899473c-31.181729 31.181729-31.181729 81.85204 0 113.033769l28.283427 28.283428C224.868241 858.696857 245.356237 866.49229 265.844232 866.49229s40.876049-7.795432 56.566855-23.386297l0.899473-0.899473c27.483896 15.790748 57.166504 28.183486 88.548117 36.678508v1.299239c0 44.174117 35.779036 79.953152 79.953152 79.953152h39.976576c44.174117 0 79.953152-35.779036 79.953153-79.953152v-1.299239c31.081788-8.495022 60.464572-20.687878 87.848526-36.278743l1.199297 1.199298c15.590865 15.590865 36.07886 23.386297 56.566856 23.386297s40.975991-7.795432 56.566855-23.386297l28.283428-28.283428c31.281671-31.281671 31.281671-81.85204 0-113.133711l-0.899473-0.899473c15.890689-27.683779 28.483311-57.56627 37.078274-89.147765h1.299239c44.174117 0 79.953152-35.779036 79.953152-79.953152v-39.976576c0-44.174117-35.779036-79.953152-79.953152-79.953153h-1.299239c-8.495022-31.281671-20.887761-60.964279-36.678509-88.548116l0.899473-0.899473c31.181729-31.181729 31.181729-81.85204 0-113.033769l-28.283427-28.283428c-15.590865-15.590865-36.07886-23.386297-56.566856-23.386297s-40.876049 7.795432-56.566855 23.386297l-0.899473 0.899473c-27.483896-15.790748-57.166504-28.183486-88.548116-36.678509v-1.299239c0-44.274058-35.878977-80.053094-79.953153-80.053093z" fill="#ffffff" opacity=".502" p-id="3751"></path><path d="M511.800117 372.381808c37.378099 0 72.557486 14.59145 98.942026 40.97599 26.38454 26.38454 40.975991 61.563927 40.975991 98.942026s-14.59145 72.557486-40.975991 98.942026c-26.38454 26.38454-61.563927 40.975991-98.942026 40.975991s-72.557486-14.59145-98.942026-40.975991c-26.38454-26.38454-40.975991-61.563927-40.975991-98.942026s14.59145-72.557486 40.975991-98.942026c26.38454-26.38454 61.563927-40.975991 98.942026-40.97599m0-59.964865c-110.435292 0-199.882881 89.447589-199.882881 199.882881s89.447589 199.882881 199.882881 199.882881 199.882881-89.447589 199.882881-199.882881-89.547531-199.882881-199.882881-199.882881z" fill="#ffffff" p-id="3752"></path><path d="M511.800117 512.299824m-99.94144 0a99.941441 99.941441 0 1 0 199.882881 0 99.941441 99.941441 0 1 0-199.882881 0Z" fill="#ffffff" p-id="3753"></path></svg>