<?xml version="1.0" standalone="no"?><!DOCTYPE svg PUBLIC "-//W3C//DTD SVG 1.1//EN" "http://www.w3.org/Graphics/SVG/1.1/DTD/svg11.dtd"><svg t="1766940136685" class="icon" viewBox="0 0 1954 1024" version="1.1" xmlns="http://www.w3.org/2000/svg" p-id="26551" xmlns:xlink="http://www.w3.org/1999/xlink" width="381.640625" height="200">
    <rect x="0" y="0" width="1954" height="1024" rx="512" ry="512" fill="#ffffff" />
    
    <path d="M1442.536727 0c278.481455 0 505.064727 221.928727 512.186182 498.594909L1954.909091 512c0 282.763636-229.003636 512-512.372364 512H512.372364C233.890909 1024 7.307636 802.164364 0.186182 525.451636L0 512C0 229.236364 229.003636 0 512.372364 0h930.164363zM1442.909091 93.090909a418.909091 418.909091 0 1 0 0 837.818182 418.909091 418.909091 0 0 0 0-837.818182zM870.027636 275.362909H434.920727v39.098182h101.655273v128.465454c0 5.585455-0.558545 12.288-0.558545 19.549091h-131.258182v38.539637h129.024c-4.468364 44.683636-12.288 82.664727-24.017455 115.060363-17.873455 42.449455-49.710545 76.520727-94.952727 102.213819l21.783273 34.629818c49.152-25.693091 84.340364-61.998545 105.565091-108.916364 16.756364-37.981091 27.368727-85.457455 32.395636-142.987636h161.419636v247.435636h40.773818v-247.435636h122.321455v-38.539637h-122.321455v-148.014545h93.277091v-39.098182z m-134.050909 39.098182v148.014545h-158.626909c0-6.144 0.558545-12.846545 0.558546-19.549091v-128.465454h158.068363z" fill="#10B981" p-id="26552"></path>
</svg>