<?xml version="1.0" standalone="no"?><!DOCTYPE svg PUBLIC "-//W3C//DTD SVG 1.1//EN" "http://www.w3.org/Graphics/SVG/1.1/DTD/svg11.dtd"><svg t="1766940644564" class="icon" viewBox="0 0 1954 1024" version="1.1" xmlns="http://www.w3.org/2000/svg" p-id="100987" xmlns:xlink="http://www.w3.org/1999/xlink" width="381.640625" height="200">
    <rect x="0" y="0" width="1954" height="1024" rx="512" ry="512" fill="#ffffff" />
    
    <path d="M1442.536727 0c278.481455 0 505.064727 221.928727 512.186182 498.594909L1954.909091 512c0 282.763636-229.003636 512-512.372364 512H512.372364C233.890909 1024 7.307636 802.164364 0.186182 525.451636L0 512C0 229.236364 229.003636 0 512.372364 0h930.164363zM512 93.090909a418.909091 418.909091 0 1 0 0 837.818182 418.909091 418.909091 0 0 0 0-837.818182z m895.162182 145.966546c-16.756364 46.917818-35.188364 86.574545-56.413091 118.970181h-255.255273v39.098182h187.112727v26.251637a429.288727 429.288727 0 0 1-8.378181 77.637818h-210.571637v39.098182h200.517818a261.12 261.12 0 0 1-31.83709 66.466909c-33.512727 44.683636-93.277091 80.989091-178.734546 108.357818l21.783273 35.188363c86.016-27.368727 148.014545-65.908364 185.995636-115.060363a295.330909 295.330909 0 0 0 42.449455-83.781818c30.161455 84.898909 106.123636 152.482909 229.003636 202.193454l23.458909-37.422545c-117.294545-41.890909-189.346909-100.538182-216.715636-175.941818h203.310545v-39.098182h-226.769454c4.468364-23.458909 6.702545-49.710545 7.819636-77.637818v-26.251637h186.554182v-39.098182H1395.432727c20.107636-31.837091 36.864-68.142545 50.269091-108.357818l-38.539636-10.612363z m-210.013091 5.026909l-36.864 17.873454c22.900364 27.927273 44.125091 59.764364 64.232727 95.511273l36.305455-18.432a877.754182 877.754182 0 0 0-63.674182-94.952727z" fill="#71717A" fill-opacity=".25" p-id="100988"></path></svg>